<svg xmlns="http://www.w3.org/2000/svg" width="82" height="82" viewBox="0 0 82 82">
    <g fill="none" fill-rule="nonzero">
        <rect width="84" height="84" fill="#F8F8F8" rx="41"/>
        <path fill="#6747C7" d="M41 26.357c-4.772 0-9.007 2.31-11.683 5.857h-.031v.04A14.542 14.542 0 0 0 26.357 41c0 8.07 6.573 14.643 14.643 14.643S55.643 49.07 55.643 41 49.07 26.357 41 26.357zm4.393 3.784A11.686 11.686 0 0 1 52.714 41c0 3.057-1.17 5.825-3.077 7.908a2.918 2.918 0 0 0-2.78-2.05h-1.464v-4.394c0-.808-.656-1.464-1.464-1.464h-7.322v-2.929h1.464c.809 0 1.465-.656 1.465-1.464V33.68h2.928a2.928 2.928 0 0 0 2.929-2.929v-.61zm-15.804 8.234L32.214 41l4.393 4.393v1.464a2.928 2.928 0 0 0 2.929 2.929v2.828a11.683 11.683 0 0 1-9.947-14.24z"/>
    </g>
</svg>
