<svg xmlns="http://www.w3.org/2000/svg" width="82" height="82" viewBox="0 0 82 82">
    <g fill="none" fill-rule="nonzero">
        <rect width="84" height="84" fill="#F8F8F8" rx="41"/>
        <path fill="#6747C7" d="M49.786 26.357H32.214a2.932 2.932 0 0 0-2.928 2.929v23.428a2.932 2.932 0 0 0 2.928 2.929h17.572a2.932 2.932 0 0 0 2.928-2.929V29.286a2.932 2.932 0 0 0-2.928-2.929zM36.607 51.25H33.68v-2.929h2.928v2.929zm0-5.857H33.68v-2.929h2.928v2.929zm0-5.857H33.68v-2.929h2.928v2.929zM48.321 51.25h-8.785v-2.929h8.785v2.929zm0-5.857h-8.785v-2.929h8.785v2.929zm0-5.857h-8.785v-2.929h8.785v2.929zm0-5.857h-8.785V30.75h8.785v2.929zm-11.714 0H33.68V30.75h2.928v2.929z"/>
    </g>
</svg>
