<svg aria-hidden="true" style="position: absolute; width: 0; height: 0; overflow: hidden;" version="1.1" xmlns="http://www.w3.org/2000/svg" xmlns:xlink="http://www.w3.org/1999/xlink">
<defs>
<symbol id="Play_l" viewBox="0 0 41.999 41.999">
<title>play-button</title>
<path  d="M36.068,20.176l-29-20C6.761-0.035,6.363-0.057,6.035,0.114C5.706,0.287,5.5,0.627,5.5,0.999v40
	c0,0.372,0.206,0.713,0.535,0.886c0.146,0.076,0.306,0.114,0.465,0.114c0.199,0,0.397-0.06,0.568-0.177l29-20
	c0.271-0.187,0.432-0.494,0.432-0.823S36.338,20.363,36.068,20.176z"/>
</symbol>
<symbol id="Check" viewBox="0 0 442.533 442.533">
<title>check-button</title>
<path  d="M434.539,98.499l-38.828-38.828c-5.324-5.328-11.799-7.993-19.41-7.993c-7.618,0-14.093,2.665-19.417,7.993L169.59,247.248
		l-83.939-84.225c-5.33-5.33-11.801-7.992-19.412-7.992c-7.616,0-14.087,2.662-19.417,7.992L7.994,201.852
		C2.664,207.181,0,213.654,0,221.269c0,7.609,2.664,14.088,7.994,19.416l103.351,103.349l38.831,38.828
		c5.327,5.332,11.8,7.994,19.414,7.994c7.611,0,14.084-2.669,19.414-7.994l38.83-38.828L434.539,137.33
		c5.325-5.33,7.994-11.802,7.994-19.417C442.537,110.302,439.864,103.829,434.539,98.499z"/>
</symbol>

</defs>


</svg>


