<svg xmlns="http://www.w3.org/2000/svg" width="82" height="82" viewBox="0 0 82 82">
    <g fill="none" fill-rule="nonzero">
        <rect width="84" height="84" fill="#F8F8F8" rx="41"/>
        <path fill="#6747C7" d="M33.884 26.357a2.652 2.652 0 0 0-2.646 2.662v23.962a2.652 2.652 0 0 0 2.646 2.662h14.232a2.652 2.652 0 0 0 2.646-2.662V29.019a2.652 2.652 0 0 0-2.646-2.662H33.884zm0 2.662h14.232v13.312H33.884V29.02zm3.142 2.663v2.662h7.948v-2.662h-7.948zm0 5.324v2.663h7.948v-2.663h-7.948zM41 46.99c1.097 0 1.987.895 1.987 1.997s-.89 1.997-1.987 1.997a1.993 1.993 0 0 1-1.987-1.997c0-1.102.89-1.997 1.987-1.997z"/>
    </g>
</svg>
