<svg xmlns="http://www.w3.org/2000/svg" xmlns:xlink="http://www.w3.org/1999/xlink" version="1.1" width="73.168" height="73.168" style="enable-background:new 0 0 73.168 73.168;" xml:space="preserve"><rect id="backgroundrect" width="100%" height="100%" x="0" y="0" fill="none" stroke="none"/>
<g class="currentLayer" style=""><title>Layer 1</title><g id="svg_1" class="selected" fill="#ffffff" fill-opacity="1">
	<g id="Navigation" fill="#ffffff" fill-opacity="1">
		<g id="svg_2" fill="#ffffff" fill-opacity="1">
			<path d="M4.242,14.425h64.684c2.344,0,4.242-1.933,4.242-4.324c0-2.385-1.898-4.325-4.242-4.325H4.242     C1.898,5.776,0,7.716,0,10.101C0,12.493,1.898,14.425,4.242,14.425z M68.926,32.259H4.242C1.898,32.259,0,34.2,0,36.584     c0,2.393,1.898,4.325,4.242,4.325h64.684c2.344,0,4.242-1.933,4.242-4.325C73.168,34.2,71.27,32.259,68.926,32.259z      M68.926,58.742H4.242C1.898,58.742,0,60.683,0,63.067c0,2.393,1.898,4.325,4.242,4.325h64.684c2.344,0,4.242-1.935,4.242-4.325     C73.168,60.683,71.27,58.742,68.926,58.742z" id="svg_3" fill="#ffffff" fill-opacity="1"/>
		</g>
	</g>
</g><g id="svg_4">
</g><g id="svg_5">
</g><g id="svg_6">
</g><g id="svg_7">
</g><g id="svg_8">
</g><g id="svg_9">
</g><g id="svg_10">
</g><g id="svg_11">
</g><g id="svg_12">
</g><g id="svg_13">
</g><g id="svg_14">
</g><g id="svg_15">
</g><g id="svg_16">
</g><g id="svg_17">
</g><g id="svg_18">
</g></g></svg>