<svg width="138" height="28" xmlns="http://www.w3.org/2000/svg"><path d="M41.383 8.22h2.581v11.513h-2.581v-4.885h-4.335v4.885h-2.582V8.22h2.582v4.402h4.335zm8.609 5.748c0 .565.068 1.074.206 1.528.138.455.337.845.596 1.171.259.328.576.58.952.756.375.178.805.267 1.29.267.474 0 .902-.09 1.283-.267.38-.177.7-.428.959-.756.26-.326.458-.716.596-1.17.138-.455.207-.964.207-1.529a5.34 5.34 0 0 0-.207-1.537 3.493 3.493 0 0 0-.596-1.18 2.615 2.615 0 0 0-.96-.755 3.004 3.004 0 0 0-1.282-.266c-.485 0-.915.091-1.29.274a2.714 2.714 0 0 0-.952.764c-.259.327-.458.72-.596 1.18-.138.46-.206.966-.206 1.52zm8.753 0c0 .985-.147 1.852-.439 2.6-.292.747-.692 1.373-1.2 1.877a4.917 4.917 0 0 1-1.811 1.138 6.55 6.55 0 0 1-2.259.382 6.383 6.383 0 0 1-2.217-.382A5.086 5.086 0 0 1 49 18.445c-.519-.504-.926-1.13-1.224-1.877-.298-.748-.447-1.615-.447-2.6 0-.986.154-1.853.463-2.6.309-.748.725-1.376 1.25-1.886a5.13 5.13 0 0 1 1.82-1.146 6.218 6.218 0 0 1 2.175-.383c.783 0 1.522.128 2.218.383a5.042 5.042 0 0 1 1.82 1.146c.518.51.926 1.138 1.224 1.886.298.747.447 1.614.447 2.6zm6.49 3.788c.364 0 .665-.03.902-.092.237-.06.428-.143.57-.25a.832.832 0 0 0 .299-.373c.055-.143.083-.304.083-.481 0-.377-.177-.69-.53-.939-.353-.25-.96-.518-1.82-.806-.375-.133-.75-.285-1.125-.457a4.133 4.133 0 0 1-1.01-.648 3.095 3.095 0 0 1-.727-.947c-.188-.37-.282-.822-.282-1.354 0-.531.1-1.01.298-1.437a3.07 3.07 0 0 1 .844-1.088c.364-.3.805-.528 1.323-.69a5.929 5.929 0 0 1 1.754-.24c.773 0 1.44.083 2.003.249a7.26 7.26 0 0 1 1.39.548l-.745 2.044a7.087 7.087 0 0 0-1.067-.44c-.392-.128-.864-.192-1.415-.192-.618 0-1.062.087-1.332.258-.27.172-.406.435-.406.789 0 .21.05.388.15.532.099.144.24.274.421.39a3.7 3.7 0 0 0 .63.316c.236.094.498.19.785.29.596.222 1.114.44 1.556.657.44.216.808.468 1.1.756.292.287.51.625.654 1.013.143.388.215.858.215 1.412 0 1.074-.376 1.908-1.126 2.5-.75.593-1.88.89-3.392.89-.507 0-.965-.031-1.373-.092a8.928 8.928 0 0 1-1.084-.225 6.21 6.21 0 0 1-.81-.282 6.126 6.126 0 0 1-.571-.283l.728-2.06a6.41 6.41 0 0 0 1.266.507c.501.15 1.116.225 1.844.225m15.89-9.536v2.21h-3.459v9.303h-2.58v-9.304h-3.46V8.22zm2.866 11.513h2.582V8.22H83.99zm14.136 0a57.947 57.947 0 0 0-2.4-3.905 39.771 39.771 0 0 0-2.746-3.638v7.543h-2.548V8.22h2.101c.364.365.767.814 1.208 1.345.441.532.89 1.1 1.349 1.703.457.604.912 1.23 1.365 1.877a95.48 95.48 0 0 1 1.274 1.87V8.22h2.565v11.513h-2.168m11.62-9.52c-1.202 0-2.07.335-2.606 1.005-.535.67-.802 1.587-.802 2.75 0 .564.066 1.077.198 1.537.133.459.331.855.596 1.187.265.333.595.59.993.773.397.183.86.274 1.39.274.286 0 .532-.006.736-.017.204-.01.383-.033.537-.066v-4.004h2.582v5.699c-.31.122-.805.251-1.49.39-.683.138-1.527.208-2.531.208-.86 0-1.641-.134-2.341-.399a4.897 4.897 0 0 1-1.796-1.163c-.496-.51-.88-1.135-1.15-1.877-.27-.742-.405-1.59-.405-2.542 0-.964.15-1.816.447-2.559a5.502 5.502 0 0 1 1.224-1.885 5.157 5.157 0 0 1 1.829-1.171c.7-.266 1.447-.4 2.242-.4a9.055 9.055 0 0 1 2.589.358 5.15 5.15 0 0 1 1.216.523l-.744 2.077a6.759 6.759 0 0 0-1.216-.49 5.155 5.155 0 0 0-1.498-.208m7.235 9.52V8.22h7.744v2.176h-5.162v2.26h4.583v2.126h-4.583v2.774h5.543v2.177zm14.748-9.437c-.188 0-.356.006-.505.017l-.422.033v3.123h.728c.97 0 1.666-.121 2.085-.365.42-.243.629-.659.629-1.246 0-.565-.212-.966-.637-1.205-.425-.237-1.05-.357-1.878-.357m-.15-2.21c1.722 0 3.04.308 3.955.923.916.614 1.374 1.57 1.374 2.866 0 .808-.185 1.465-.554 1.968-.37.504-.902.9-1.597 1.188.232.288.474.618.728.989.253.37.505.759.753 1.163s.488.825.72 1.262c.231.438.446.867.644 1.288h-2.885l-.64-1.147a30.42 30.42 0 0 0-1.337-2.168 11.51 11.51 0 0 0-.664-.889h-1.274v4.204h-2.58V8.385a14.65 14.65 0 0 1 1.745-.232 22.021 22.021 0 0 1 1.613-.066M0 12.975V.001l6.503 3.491v5.846l8.609.004 6.609 3.633H0zm16.873-4.707V0l6.678 3.405v8.77l-6.678-3.907zm0 15.859V18.33l-8.676-.006c.008.039-6.718-3.69-6.718-3.69l22.072.103v12.975l-6.678-3.586zM0 24.127v-8.48l6.503 3.815v8.07L0 24.126z" fill="#FFF" fill-rule="evenodd"/></svg>